<svg width="613" height="528" viewBox="0 0 613 528" fill="none" xmlns="http://www.w3.org/2000/svg">
<mask id="mask0_607_3532" style="mask-type:alpha" maskUnits="userSpaceOnUse" x="0" y="0" width="613" height="528">
<path d="M0 0H613V528H100C44.7715 528 0 483.228 0 428V0Z" fill="#757CE6"/>
</mask>
<g mask="url(#mask0_607_3532)">
<mask id="mask1_607_3532" style="mask-type:alpha" maskUnits="userSpaceOnUse" x="-75" y="-107" width="688" height="680">
<path d="M310.09 -102.414L-68.3842 215.163C-75.3544 221.012 -76.2641 231.393 -70.417 238.361L204.742 566.283C210.589 573.251 220.971 574.158 227.941 568.31L606.415 250.732C613.385 244.884 614.295 234.502 608.447 227.534L333.288 -100.388C327.441 -107.356 317.06 -108.263 310.09 -102.414ZM595.832 238.12L217.358 555.697L5.69706 303.45L384.171 -14.1275L595.832 238.12ZM373.588 -26.7399L-4.88598 290.837L-57.8012 227.775L320.673 -89.8017L373.588 -26.7399Z" fill="#1F1F1F" fill-opacity="0.1"/>
<path d="M318.64 -66.603L116.787 102.771L148.536 140.609L350.389 -28.7659L318.64 -66.603ZM327.19 -30.7924L150.569 117.41L139.986 104.798L316.607 -43.4048L327.19 -30.7924Z" fill="#1F1F1F" fill-opacity="0.1"/>
<path d="M16.0703 251.76C26.5256 242.987 27.8901 227.415 19.1194 216.963C10.3487 206.51 -5.22351 205.15 -15.6788 213.923C-26.1342 222.696 -27.4987 238.268 -18.728 248.72C-9.95729 259.173 5.61493 260.533 16.0703 251.76ZM-5.09581 226.535C-1.6107 223.611 3.58004 224.064 6.50361 227.549C9.42717 231.033 8.97234 236.223 5.48723 239.148C2.00212 242.072 -3.18862 241.619 -6.11219 238.134C-9.03575 234.65 -8.58092 229.46 -5.09581 226.535Z" fill="#1F1F1F" fill-opacity="0.1"/>
<path d="M66.5341 209.416C76.9895 200.643 78.354 185.071 69.5833 174.619C60.8126 164.166 45.2404 162.806 34.785 171.579C24.3297 180.352 22.9652 195.924 31.7359 206.377C40.5066 216.829 56.0788 218.189 66.5341 209.416ZM45.3681 184.192C48.8532 181.267 54.0439 181.721 56.9675 185.205C59.891 188.689 59.4362 193.88 55.9511 196.804C52.466 199.728 47.2752 199.275 44.3517 195.791C41.4281 192.306 41.8829 187.116 45.3681 184.192Z" fill="#1F1F1F" fill-opacity="0.1"/>
<path d="M116.997 167.073C127.452 158.299 128.817 142.728 120.046 132.275C111.275 121.823 95.7032 120.462 85.2479 129.235C74.7926 138.008 73.4281 153.58 82.1988 164.033C90.9695 174.485 106.542 175.846 116.997 167.073ZM95.8309 141.848C99.3161 138.923 104.507 139.377 107.43 142.861C110.354 146.345 109.899 151.536 106.414 154.46C102.929 157.385 97.7381 156.931 94.8146 153.447C91.891 149.963 92.3458 144.772 95.8309 141.848Z" fill="#1F1F1F" fill-opacity="0.1"/>
<path d="M309.195 337.807C310.477 337.51 311.611 336.908 312.573 336.1C314.892 334.155 316.044 331.012 315.295 327.879L281.094 184.636C280.036 180.205 275.6 177.48 271.168 178.539C266.751 179.585 264.009 184.035 265.067 188.467L299.268 331.709C300.326 336.141 304.763 338.866 309.195 337.807Z" fill="#1F1F1F" fill-opacity="0.1"/>
<path d="M209.84 254.661C205.402 253.631 200.996 256.387 199.951 260.81L181.237 340.991C180.65 343.525 181.28 346.166 182.947 348.153C184.614 350.139 187.105 351.219 189.703 351.081L271.916 346.574C273.766 346.473 275.434 345.771 276.759 344.66C278.683 343.045 279.847 340.59 279.688 337.903C279.444 333.352 275.569 329.887 271.019 330.133L199.773 334.034L215.987 264.548C217.019 260.109 214.264 255.705 209.84 254.661Z" fill="#1F1F1F" fill-opacity="0.1"/>
<path d="M370.522 261.684C373.157 262.294 375.777 261.573 377.685 259.972C379.01 258.861 379.99 257.339 380.411 255.535L399.126 175.354C399.713 172.82 399.082 170.179 397.416 168.192C395.749 166.206 393.257 165.126 390.659 165.264L308.447 169.771C303.909 170.032 300.43 173.892 300.674 178.442C300.918 182.993 304.793 186.458 309.344 186.212L380.589 182.311L364.376 251.797C363.344 256.236 366.099 260.64 370.522 261.684Z" fill="#1F1F1F" fill-opacity="0.1"/>
<path d="M41.5113 294.891L28.8955 305.477L39.4785 318.089L52.0943 307.503L41.5113 294.891Z" fill="#1F1F1F" fill-opacity="0.1"/>
<path d="M62.6773 320.115L50.0615 330.701L60.6445 343.314L73.2603 332.728L62.6773 320.115Z" fill="#1F1F1F" fill-opacity="0.1"/>
<path d="M83.8443 345.34L71.2285 355.926L81.8115 368.538L94.4273 357.952L83.8443 345.34Z" fill="#1F1F1F" fill-opacity="0.1"/>
<path d="M105.01 370.564L92.3945 381.15L102.978 393.763L115.593 383.177L105.01 370.564Z" fill="#1F1F1F" fill-opacity="0.1"/>
<path d="M126.176 395.789L113.561 406.375L124.144 418.987L136.759 408.401L126.176 395.789Z" fill="#1F1F1F" fill-opacity="0.1"/>
<path d="M147.342 421.014L134.727 431.6L145.31 444.212L157.925 433.626L147.342 421.014Z" fill="#1F1F1F" fill-opacity="0.1"/>
<path d="M168.508 446.239L155.893 456.825L166.476 469.438L179.091 458.852L168.508 446.239Z" fill="#1F1F1F" fill-opacity="0.1"/>
<path d="M189.674 471.464L177.059 482.05L187.642 494.662L200.257 484.076L189.674 471.464Z" fill="#1F1F1F" fill-opacity="0.1"/>
<path d="M210.84 496.689L198.225 507.274L208.808 519.887L221.423 509.301L210.84 496.689Z" fill="#1F1F1F" fill-opacity="0.1"/>
<path d="M91.9753 252.547L54.1279 284.305L64.711 296.917L102.558 265.159L91.9753 252.547Z" fill="#1F1F1F" fill-opacity="0.1"/>
<path d="M125.757 267.186L75.2939 309.529L85.877 322.142L136.34 279.798L125.757 267.186Z" fill="#1F1F1F" fill-opacity="0.1"/>
<path d="M121.692 313.582L96.46 334.754L107.043 347.366L132.275 326.194L121.692 313.582Z" fill="#1F1F1F" fill-opacity="0.1"/>
<path d="M130.242 349.393L117.626 359.979L128.209 372.591L140.825 362.005L130.242 349.393Z" fill="#1F1F1F" fill-opacity="0.1"/>
<path d="M164.024 364.031L138.792 385.203L149.375 397.815L174.607 376.644L164.024 364.031Z" fill="#1F1F1F" fill-opacity="0.1"/>
<path d="M172.574 399.842L159.958 410.428L170.541 423.04L183.157 412.454L172.574 399.842Z" fill="#1F1F1F" fill-opacity="0.1"/>
<path d="M231.587 393.31L181.124 435.653L191.707 448.266L242.17 405.922L231.587 393.31Z" fill="#1F1F1F" fill-opacity="0.1"/>
<path d="M265.369 407.948L202.29 460.878L212.873 473.49L275.952 420.561L265.369 407.948Z" fill="#1F1F1F" fill-opacity="0.1"/>
<path d="M261.303 454.345L223.456 486.103L234.039 498.715L271.886 466.957L261.303 454.345Z" fill="#1F1F1F" fill-opacity="0.1"/>
<path d="M129.822 220.789L104.591 241.961L115.174 254.573L140.405 233.401L129.822 220.789Z" fill="#1F1F1F" fill-opacity="0.1"/>
<path d="M180.286 178.445L142.438 210.203L153.022 222.815L190.869 191.058L180.286 178.445Z" fill="#1F1F1F" fill-opacity="0.1"/>
<path d="M163.604 235.428L138.372 256.6L148.955 269.212L174.187 248.04L163.604 235.428Z" fill="#1F1F1F" fill-opacity="0.1"/>
<path d="M303.216 376.19L277.984 397.362L288.567 409.975L313.799 388.803L303.216 376.19Z" fill="#1F1F1F" fill-opacity="0.1"/>
<path d="M299.151 422.587L273.919 443.759L284.502 456.371L309.734 435.199L299.151 422.587Z" fill="#1F1F1F" fill-opacity="0.1"/>
<path d="M349.614 380.243L311.767 412.001L322.35 424.613L360.197 392.856L349.614 380.243Z" fill="#1F1F1F" fill-opacity="0.1"/>
</mask>
<g mask="url(#mask1_607_3532)">
<path d="M0 1H1920V529H100C44.7715 529 0 484.228 0 429V1Z" fill="#0A0F57"/>
</g>
</g>
</svg>
